<svg width="527" height="397" viewBox="0 0 527 397" fill="none" xmlns="http://www.w3.org/2000/svg">
<g clip-path="url(#clip0_1_2446)">
<mask id="mask0_1_2446" style="mask-type:luminance" maskUnits="userSpaceOnUse" x="-4" y="0" width="536" height="397">
<path d="M531.864 0.223267H-4V396.681H531.864V0.223267Z" fill="white"/>
</mask>
<g mask="url(#mask0_1_2446)">
<path d="M445.215 386.184L446.166 389.813L446.635 391.581C447.398 394.474 450.198 396.658 453.186 396.671C453.36 396.684 453.762 396.671 454.043 396.671H455.919C466.716 396.751 482.471 396.617 493.295 396.671H500.771H504.495L506.062 396.604C513.926 396.055 521.107 390.577 523.759 383.13C524.523 381.107 526.813 374.745 527.631 372.576C531.81 361.539 532.963 349.418 530.806 337.818C529.158 329.032 520.169 304.642 517.315 295.547C515.802 291.382 514.274 285.77 512.332 281.953C510.282 277.693 507.737 273.916 504.642 270.34C500.637 265.679 484.038 245.762 480.542 241.677L478.117 238.784C473.12 233.186 475.25 225.337 474.017 218.586C469.865 179.999 435.998 148.202 397.376 146.501C389.244 146.193 376.155 146.407 367.715 146.34C362.089 146.527 356.395 145.376 351.412 142.697C347.004 140.581 342.557 135.826 339.074 132.424L317.693 111.462C314.678 108.556 310.03 103.881 307.042 101.069C298.268 92.8448 288.086 86.1345 277.074 81.3395C272.158 79.1563 247.816 69.6065 242.484 67.3697C237.434 65.307 232.758 62.2934 228.779 58.5565C225.109 55.1813 221.84 50.3729 218.879 46.4485C216.709 43.5956 212.248 37.488 209.957 34.5547C201.182 23.3173 188.549 15.4819 174.831 11.8789C169.593 10.4726 142.8 1.95407 137.562 0.949524C122.316 -1.99712 105.932 4.19084 96.3536 16.4596C92.7499 20.8662 90.285 26.2372 88.6908 31.6751C87.887 34.9432 87.2573 38.881 86.8286 42.2696C85.221 53.8151 78.9514 64.5838 69.7212 71.6691L68.0734 72.8746C67.9126 72.9951 67.8189 73.0621 67.7653 73.1156L67.5241 73.3032C64.6573 75.4864 64.1348 80.0403 66.4792 82.8128C66.573 82.9467 66.8543 83.2682 67.0285 83.4825L71.8244 89.2285L71.5833 88.974C73.1105 90.4741 73.566 92.8984 72.7086 94.8539C71.8914 96.5147 70.2972 99.7159 69.4666 101.403C67.5375 105.288 63.6391 113.123 61.71 116.994C57.249 125.566 61.911 137.098 71.1412 140.005L79.3399 142.75C81.6843 143.46 83.7206 145.161 84.8861 147.331L86.8956 151.336L87.8736 153.291C90.0572 157.993 95.1211 160.778 100.225 160.417C101.833 160.444 129.765 160.403 137.535 160.417C138.54 160.417 139.357 161.234 139.357 162.238C139.357 163.109 138.741 163.859 137.897 164.033L124.5 166.699C122.584 167.087 121.191 168.775 121.191 170.73V174.132C121.191 184.807 116.596 194.973 108.585 202.005L63.3444 241.718C41.9634 260.482 25.9143 284.698 16.9386 311.741L-2.99557 371.584C-4.89788 377.317 -4.09409 383.719 -0.463615 388.541C2.92572 393.015 8.05662 395.586 13.6832 395.586H70.8197C74.5975 395.586 77.652 392.519 77.652 388.728V382.299C77.652 380.478 76.9286 378.737 75.6559 377.451L72.789 374.585C70.9671 372.75 70.1231 370.057 70.8599 367.566C71.7441 364.62 74.41 362.664 77.4108 362.664H92.683C96.4608 362.664 99.5152 359.597 99.5152 355.806V344.837C99.5152 336.64 103.36 328.912 109.898 323.996L111.197 323.018C130.689 308.352 142.626 285.368 142.371 260.911C142.237 248.776 147.623 237.472 157.081 229.958L168.83 220.622C169.942 219.738 170.544 218.345 170.357 216.925C169.7 211.715 168.521 206.572 166.82 201.616C165.588 198 163.056 190.499 161.85 186.923C154.388 166.35 156.679 142.335 168.187 123.758C175.461 111.877 186.312 102.328 198.758 96.8897C199.642 96.5013 200.687 96.8898 201.129 97.7738C201.557 98.631 201.249 99.6623 200.432 100.171C172.634 117.476 158.742 153.117 170.062 184.191C171.214 187.754 173.773 195.562 174.871 198.938C179.976 214.421 180.645 231.337 176.747 247.155L155.058 327.103L154.375 329.595C151.347 339.426 152.7 350.261 157.71 359.195C157.911 359.691 158.97 361.66 159.157 362.088C161.448 366.28 161.006 371.45 161.019 375.978V386.318C160.952 388.621 160.952 391.488 162.734 393.256C164.261 395.05 166.592 395.747 168.897 395.586H210.131H230.749C231.365 395.613 233.602 395.586 234.192 395.546C237.876 395.198 240.649 391.662 240.3 387.992V382.822C240.327 381.67 240.18 380.531 239.698 379.487C239.256 378.402 238.291 377.411 237.447 376.607L233.776 372.91C230.521 369.736 230.173 364.097 232.892 360.534C233.803 359.208 239.336 351.507 240.381 350.007C245.726 342.212 255.988 328.322 261.132 320.594C272.787 302.794 276.498 280.145 271.448 259.505C270.295 253.772 266.866 246.017 264.977 240.445C262.566 233.601 256.43 217.809 254.501 210.885C251.46 200.531 251.487 189.656 252.183 179.007C252.518 172.686 252.893 166.35 253.469 160.028C253.563 159.064 254.367 158.314 255.345 158.314C256.309 158.314 257.127 159.051 257.22 160.015C258.118 169.699 258.493 179.597 258.989 189.254C259.645 199.272 261.963 208.702 265.767 218.037C268.299 224.587 274.435 240.713 276.82 247.021C278.762 252.165 280.209 257.522 281.133 262.96C281.83 267.045 284.576 270.528 288.394 272.108C294.101 274.479 300.103 276.555 306.386 278.323C312.856 280.145 319.648 277.077 322.569 270.996C323.065 269.965 323.587 268.934 324.123 267.916C328.303 259.786 333.916 252.526 339.516 245.387C344.633 238.771 349.952 232.315 355.471 225.993C356.101 225.27 357.186 225.149 357.963 225.698C358.753 226.261 358.994 227.346 358.499 228.176C352.149 238.798 344.58 250.303 337.734 260.429C329.589 273.046 323.868 287.27 321.417 302.11C319.528 313.977 316.031 336.265 314.129 348.346C313.352 352.82 312.964 358.82 310.525 362.758C308.395 366.964 303.452 370.325 299.956 373.259L297.37 375.375L297.048 375.643L296.848 375.83C294.918 377.491 294.168 380.25 294.932 382.688C295.655 385.259 296.7 389.559 297.437 391.943C298.335 394.421 300.853 396.135 303.506 396.082L316.849 396.042C327.887 396.001 339.154 396.095 350.206 396.109C350.702 396.109 352.202 396.122 352.698 396.109C357.574 396.082 362.437 394.515 366.336 391.555C371.292 387.978 373.69 382.956 375.619 377.103C377.093 373.071 385.533 350.248 387.194 345.721C388.695 341.515 390.49 336.975 392.432 332.97C398.501 320.406 407.035 309.022 417.671 299.954C430.559 289.373 440.097 275.684 446.554 260.054C446.93 259.143 447.908 258.661 448.845 258.929C449.783 259.197 450.386 260.121 450.239 261.085C448.108 274.211 441.785 286.453 433.091 296.485C429.621 300.49 427.598 305.553 427.598 310.857V315.29C427.558 317.42 427.571 319.951 427.96 322.067C428.858 327.385 431.711 332.273 435.757 335.809L438.503 338.341L449.515 348.48L455.021 353.556C456.535 354.842 457.741 356.556 458.25 358.485C459.415 362.45 457.593 366.856 454.204 369.133C452.757 370.325 449.837 372.669 448.39 373.848C447.733 374.451 446.501 375.294 445.911 375.937C444.237 377.638 443.607 380.237 444.21 382.541L445.161 386.17L445.215 386.184Z" fill="white"/>
</g>
</g>
<defs>
<clipPath id="clip0_1_2446">
<rect width="525.376" height="396.676" fill="white" transform="translate(0.873108)"/>
</clipPath>
</defs>
</svg>
