<svg width="526" height="397" viewBox="0 0 526 397" fill="none" xmlns="http://www.w3.org/2000/svg">
<g clip-path="url(#clip0_1_2455)">
<mask id="mask0_1_2455" style="mask-type:luminance" maskUnits="userSpaceOnUse" x="-5" y="0" width="536" height="397">
<path d="M530.991 0.223267H-4.87311V396.681H530.991V0.223267Z" fill="white"/>
</mask>
<g mask="url(#mask0_1_2455)">
<path d="M444.342 386.184L445.293 389.813L445.762 391.581C446.525 394.474 449.325 396.658 452.313 396.671C452.487 396.684 452.889 396.671 453.17 396.671H455.046C465.843 396.751 481.598 396.617 492.422 396.671H499.897H503.622L505.189 396.604C513.053 396.055 520.233 390.577 522.886 383.13C523.65 381.107 525.94 374.745 526.758 372.576C530.937 361.539 532.089 349.418 529.933 337.818C528.285 329.032 519.296 304.642 516.442 295.547C514.928 291.382 513.401 285.77 511.459 281.953C509.409 277.693 506.864 273.916 503.769 270.34C499.763 265.679 483.165 245.762 479.669 241.677L477.244 238.784C472.247 233.186 474.377 225.337 473.144 218.586C468.991 179.999 435.125 148.202 396.502 146.501C388.371 146.193 375.282 146.407 366.842 146.34C361.216 146.527 355.522 145.376 350.539 142.697C346.131 140.581 341.684 135.826 338.2 132.424L316.82 111.462C313.805 108.556 309.157 103.881 306.169 101.069C297.394 92.8448 287.213 86.1345 276.201 81.3395C271.284 79.1563 246.943 69.6065 241.611 67.3697C236.561 65.307 231.885 62.2934 227.906 58.5565C224.236 55.1813 220.967 50.3729 218.006 46.4485C215.836 43.5956 211.375 37.488 209.084 34.5547C200.309 23.3173 187.676 15.4819 173.958 11.8789C168.72 10.4726 141.927 1.95407 136.689 0.949524C121.443 -1.99712 105.059 4.19084 95.4805 16.4596C91.8768 20.8662 89.4119 26.2372 87.8177 31.6751C87.0139 34.9432 86.3842 38.881 85.9555 42.2696C84.3479 53.8151 78.0783 64.5838 68.8481 71.6691L67.2003 72.8746C67.0396 72.9951 66.9458 73.0621 66.8922 73.1156L66.651 73.3032C63.7842 75.4864 63.2617 80.0403 65.6061 82.8128C65.6999 82.9467 65.9812 83.2682 66.1554 83.4825L70.9514 89.2285L70.7102 88.974C72.2374 90.4741 72.6929 92.8984 71.8355 94.8539C71.0183 96.5147 69.4241 99.7159 68.5936 101.403C66.6644 105.288 62.766 113.123 60.8369 116.994C56.3759 125.566 61.0379 137.098 70.2681 140.005L78.4669 142.75C80.8113 143.46 82.8475 145.161 84.013 147.331L86.0225 151.336L87.0005 153.291C89.1841 157.993 94.248 160.778 99.3521 160.417C100.96 160.444 128.892 160.403 136.662 160.417C137.667 160.417 138.484 161.234 138.484 162.238C138.484 163.109 137.868 163.859 137.024 164.033L123.627 166.699C121.711 167.087 120.318 168.775 120.318 170.73V174.132C120.318 184.807 115.723 194.973 107.712 202.005L62.4713 241.718C41.0903 260.482 25.0412 284.698 16.0655 311.741L-3.86866 371.584C-5.77098 377.317 -4.96718 383.719 -1.33671 388.541C2.05263 393.015 7.18353 395.586 12.8101 395.586H69.9466C73.7244 395.586 76.7789 392.519 76.7789 388.728V382.299C76.7789 380.478 76.0555 378.737 74.7828 377.451L71.9159 374.585C70.094 372.75 69.25 370.057 69.9868 367.566C70.871 364.62 73.5369 362.664 76.5377 362.664H91.8099C95.5877 362.664 98.6421 359.597 98.6421 355.806V344.837C98.6421 336.64 102.487 328.912 109.024 323.996L110.324 323.018C129.816 308.352 141.753 285.368 141.498 260.911C141.364 248.776 146.75 237.472 156.208 229.958L167.957 220.622C169.068 219.738 169.671 218.345 169.484 216.925C168.827 211.715 167.648 206.572 165.947 201.616C164.715 198 162.183 190.499 160.977 186.923C153.515 166.35 155.806 142.335 167.313 123.758C174.588 111.877 185.439 102.328 197.885 96.8897C198.769 96.5013 199.814 96.8898 200.256 97.7738C200.684 98.631 200.376 99.6623 199.559 100.171C171.761 117.476 157.869 153.117 169.189 184.191C170.341 187.754 172.9 195.562 173.998 198.938C179.102 214.421 179.772 231.337 175.874 247.155L154.185 327.103L153.502 329.595C150.474 339.426 151.827 350.261 156.837 359.195C157.038 359.691 158.097 361.66 158.284 362.088C160.575 366.28 160.133 371.45 160.146 375.978V386.318C160.079 388.621 160.079 391.488 161.861 393.256C163.388 395.05 165.719 395.747 168.023 395.586H209.258H229.876C230.492 395.613 232.729 395.586 233.319 395.546C237.003 395.198 239.776 391.662 239.427 387.992V382.822C239.454 381.67 239.307 380.531 238.825 379.487C238.382 378.402 237.418 377.411 236.574 376.607L232.903 372.91C229.648 369.736 229.3 364.097 232.019 360.534C232.93 359.208 238.463 351.507 239.508 350.007C244.853 342.212 255.115 328.322 260.259 320.594C271.914 302.794 275.625 280.145 270.574 259.505C269.422 253.772 265.993 246.017 264.104 240.445C261.692 233.601 255.557 217.809 253.628 210.885C250.587 200.531 250.614 189.656 251.31 179.007C251.645 172.686 252.02 166.35 252.596 160.028C252.69 159.064 253.494 158.314 254.472 158.314C255.436 158.314 256.253 159.051 256.347 160.015C257.245 169.699 257.62 179.597 258.116 189.254C258.772 199.272 261.09 208.702 264.894 218.037C267.426 224.587 273.562 240.713 275.946 247.021C277.889 252.165 279.336 257.522 280.26 262.96C280.957 267.045 283.703 270.528 287.521 272.108C293.228 274.479 299.23 276.555 305.513 278.323C311.983 280.145 318.775 277.077 321.696 270.996C322.192 269.965 322.714 268.934 323.25 267.916C327.43 259.786 333.043 252.526 338.643 245.387C343.76 238.771 349.078 232.315 354.598 225.993C355.228 225.27 356.313 225.149 357.09 225.698C357.88 226.261 358.121 227.346 357.626 228.176C351.276 238.798 343.706 250.303 336.861 260.429C328.716 273.046 322.995 287.27 320.544 302.11C318.655 313.977 315.158 336.265 313.256 348.346C312.479 352.82 312.09 358.82 309.652 362.758C307.522 366.964 302.579 370.325 299.082 373.259L296.497 375.375L296.175 375.643L295.974 375.83C294.045 377.491 293.295 380.25 294.059 382.688C294.782 385.259 295.827 389.559 296.564 391.943C297.461 394.421 299.98 396.135 302.632 396.082L315.976 396.042C327.014 396.001 338.281 396.095 349.333 396.109C349.829 396.109 351.329 396.122 351.825 396.109C356.701 396.082 361.564 394.515 365.463 391.555C370.419 387.978 372.817 382.956 374.746 377.103C376.22 373.071 384.66 350.248 386.321 345.721C387.821 341.515 389.617 336.975 391.559 332.97C397.628 320.406 406.161 309.022 416.798 299.954C429.686 289.373 439.224 275.684 445.681 260.054C446.056 259.143 447.034 258.661 447.972 258.929C448.91 259.197 449.513 260.121 449.365 261.085C447.235 274.211 440.912 286.453 432.218 296.485C428.748 300.49 426.725 305.553 426.725 310.857V315.29C426.685 317.42 426.698 319.951 427.087 322.067C427.984 327.385 430.838 332.273 434.884 335.809L437.63 338.341L448.642 348.48L454.148 353.556C455.662 354.842 456.868 356.556 457.377 358.485C458.542 362.45 456.72 366.856 453.331 369.133C451.884 370.325 448.964 372.669 447.517 373.848C446.86 374.451 445.628 375.294 445.038 375.937C443.364 377.638 442.734 380.237 443.337 382.541L444.288 386.17L444.342 386.184Z" fill="black"/>
</g>
</g>
<defs>
<clipPath id="clip0_1_2455">
<rect width="525.376" height="396.676" fill="white"/>
</clipPath>
</defs>
</svg>
