<?xml version="1.0" encoding="UTF-8"?>
<svg xmlns="http://www.w3.org/2000/svg" version="1.1" viewBox="0 0 594.6 207.7">
  <defs>
    <style>
      .cls-1 {
        fill: #fff;
        fill-rule: evenodd;
      }
    </style>
  </defs>
  <!-- Generator: Adobe Illustrator 28.6.0, SVG Export Plug-In . SVG Version: 1.2.0 Build 709)  -->
  <g>
    <g id="Layer_1">
      <path class="cls-1" d="M2.4,0C1.1,0,0,1.1,0,2.4v203c0,1.3,1.1,2.4,2.4,2.4h589.8c1.3,0,2.4-1.1,2.4-2.4V2.4c0-1.3-1.1-2.4-2.4-2.4H2.4ZM95,46.8h-21.1l-13.6,113.1h17l2-24.6h9.5l2,24.6h17.9l-13.6-113.1ZM80.5,120.3l1.8-23.2,1.4-19.6h.5l1.4,19.6,2,23.2h-7ZM127.9,159.9h18.2v-42.6h5.7c13,0,20.9-7.6,20.9-21.2v-27.8c0-13.8-7.9-21.4-20.9-21.4h-23.8v113.1ZM150.2,103.6h-4v-43.2h4c3.1,0,4.3,2.8,4.3,7.8v27.8c0,4.9-1.2,7.6-4.3,7.6ZM193.6,46.8v113.1h35.5v-15h-17.3v-34.7h15.4v-15h-15.4v-33.5h17.3v-15h-35.5ZM291.7,138.3v-24.3h-17.1v25.8c0,4.6-1.2,7.3-4.1,7.3s-4.3-2.8-4.3-7.3v-72.9c0-4.7,1.2-7.5,4.3-7.5s4.1,2.8,4.1,7.5v24.8h17.1v-23.4c0-14.7-7.3-22.8-21.2-22.8s-22.5,8.1-22.5,22.8v70c0,14.7,8.6,22.8,22.5,22.8s21.2-8.1,21.2-22.8ZM340.9,110.5v49.4h18.2V46.8h-18.2v48.3h-9.8v-48.3h-18.3v113.1h18.3v-49.4h9.8ZM413,46.8h-21.1l-13.6,113.1h17l2-24.6h9.5l2,24.6h17.9l-13.6-113.1ZM398.5,120.3l1.8-23.2,1.4-19.6h.5l1.4,19.6,2,23.2h-7ZM445.9,46.8v113.1h18.3V46.8h-18.3ZM515.3,103.5l-9.6-56.7h-19.4v113.1h15.7v-66.2h.3l12.8,66.2h16.2V46.8h-15.7v56.7h-.3Z"/>
    </g>
  </g>
</svg>